<?xml version="1.0" encoding="UTF-8" standalone="no"?>
<svg
   xmlns:dc="http://purl.org/dc/elements/1.1/"
   xmlns:cc="http://creativecommons.org/ns#"
   xmlns:rdf="http://www.w3.org/1999/02/22-rdf-syntax-ns#"
   xmlns:svg="http://www.w3.org/2000/svg"
   xmlns="http://www.w3.org/2000/svg"
   xmlns:sodipodi="http://sodipodi.sourceforge.net/DTD/sodipodi-0.dtd"
   xmlns:inkscape="http://www.inkscape.org/namespaces/inkscape"
   width="528.72522"
   height="345.54993"
   viewBox="19 19 292.35676 185.29155"
   id="svg3084"
   version="1.1"
   inkscape:version="0.47 r22583"
   sodipodi:docname="documents.svg">
  <metadata
     id="metadata3306">
    <rdf:RDF>
      <cc:Work
         rdf:about="">
        <dc:format>image/svg+xml</dc:format>
        <dc:type
           rdf:resource="http://purl.org/dc/dcmitype/StillImage" />
      </cc:Work>
    </rdf:RDF>
  </metadata>
  <defs
     id="defs3304">
    <inkscape:perspective
       sodipodi:type="inkscape:persp3d"
       inkscape:vp_x="0 : 318.89764 : 1"
       inkscape:vp_y="0 : 1000 : 0"
       inkscape:vp_z="956.69293 : 318.89764 : 1"
       inkscape:persp3d-origin="478.34647 : 212.59843 : 1"
       id="perspective3308" />
  </defs>
  <sodipodi:namedview
     pagecolor="#ffffff"
     bordercolor="#666666"
     borderopacity="1"
     objecttolerance="10"
     gridtolerance="10"
     guidetolerance="10"
     inkscape:pageopacity="0"
     inkscape:pageshadow="2"
     inkscape:window-width="1600"
     inkscape:window-height="1106"
     id="namedview3302"
     showgrid="false"
     inkscape:zoom="0.37002468"
     inkscape:cx="462.13133"
     inkscape:cy="53.498174"
     inkscape:window-x="-4"
     inkscape:window-y="-4"
     inkscape:window-maximized="1"
     inkscape:current-layer="svg3084" />
  <g
     id="g3086"
     transform="matrix(0.55868603,0,0,0.55868603,8.3849654,5.495429)">
    <rect
       style="fill:#ffffff"
       x="20"
       y="40"
       width="120"
       height="40"
       id="rect3088" />
    <rect
       style="fill:none;stroke:#000000;stroke-width:2"
       x="20"
       y="40"
       width="120"
       height="40"
       id="rect3090" />
  </g>
  <g
     id="g3092"
     transform="matrix(0.55868603,0,0,0.55868603,8.3849654,5.495429)">
    <rect
       style="fill:#b3b3b3"
       x="407.44601"
       y="60"
       width="37.2309"
       height="86.8722"
       id="rect3094" />
    <rect
       style="fill:none;stroke:#000000;stroke-width:1.60000002"
       x="407.44601"
       y="60"
       width="37.2309"
       height="86.8722"
       id="rect3096" />
    <rect
       style="fill:none;stroke:#000000;stroke-width:0.2"
       x="411.16901"
       y="65.212303"
       width="29.7848"
       height="9.9282503"
       id="rect3098" />
    <rect
       style="fill:none;stroke:#000000;stroke-width:0.2"
       x="411.16901"
       y="75.140602"
       width="29.7848"
       height="9.9282503"
       id="rect3100" />
    <rect
       style="fill:none;stroke:#000000;stroke-width:0.2"
       x="411.16901"
       y="85.068802"
       width="29.7848"
       height="9.9282503"
       id="rect3102" />
    <rect
       style="fill:none;stroke:#000000;stroke-width:0.2"
       x="411.16901"
       y="94.997101"
       width="29.7848"
       height="9.9282503"
       id="rect3104" />
    <rect
       style="fill:none;stroke:#000000;stroke-width:0.2"
       x="411.16901"
       y="106.911"
       width="18.615499"
       height="5.9569502"
       id="rect3106" />
    <ellipse
       style="fill:#00ff00"
       cx="439.09201"
       cy="107.904"
       rx="1.30308"
       ry="1.30308"
       id="ellipse3108"
       d="m 440.39509,107.904 c 0,0.71967 -0.58341,1.30308 -1.30308,1.30308 -0.71967,0 -1.30308,-0.58341 -1.30308,-1.30308 0,-0.71967 0.58341,-1.30308 1.30308,-1.30308 0.71967,0 1.30308,0.58341 1.30308,1.30308 z"
       sodipodi:cx="439.09201"
       sodipodi:cy="107.904"
       sodipodi:rx="1.30308"
       sodipodi:ry="1.30308" />
    <ellipse
       style="fill:none;stroke:#000000;stroke-width:0.2"
       cx="439.09201"
       cy="107.904"
       rx="1.30308"
       ry="1.30308"
       id="ellipse3110"
       d="m 440.39509,107.904 c 0,0.71967 -0.58341,1.30308 -1.30308,1.30308 -0.71967,0 -1.30308,-0.58341 -1.30308,-1.30308 0,-0.71967 0.58341,-1.30308 1.30308,-1.30308 0.71967,0 1.30308,0.58341 1.30308,1.30308 z"
       sodipodi:cx="439.09201"
       sodipodi:cy="107.904"
       sodipodi:rx="1.30308"
       sodipodi:ry="1.30308" />
    <ellipse
       style="fill:#ffff00"
       cx="439.09201"
       cy="111.875"
       rx="1.30308"
       ry="1.30308"
       id="ellipse3112"
       d="m 440.39509,111.875 c 0,0.71967 -0.58341,1.30308 -1.30308,1.30308 -0.71967,0 -1.30308,-0.58341 -1.30308,-1.30308 0,-0.71967 0.58341,-1.30308 1.30308,-1.30308 0.71967,0 1.30308,0.58341 1.30308,1.30308 z"
       sodipodi:cx="439.09201"
       sodipodi:cy="111.875"
       sodipodi:rx="1.30308"
       sodipodi:ry="1.30308" />
    <ellipse
       style="fill:none;stroke:#000000;stroke-width:0.2"
       cx="439.09201"
       cy="111.875"
       rx="1.30308"
       ry="1.30308"
       id="ellipse3114"
       d="m 440.39509,111.875 c 0,0.71967 -0.58341,1.30308 -1.30308,1.30308 -0.71967,0 -1.30308,-0.58341 -1.30308,-1.30308 0,-0.71967 0.58341,-1.30308 1.30308,-1.30308 0.71967,0 1.30308,0.58341 1.30308,1.30308 z"
       sodipodi:cx="439.09201"
       sodipodi:cy="111.875"
       sodipodi:rx="1.30308"
       sodipodi:ry="1.30308" />
    <rect
       style="fill:#ffffff"
       x="431.646"
       y="108.897"
       width="4.46771"
       height="3.9712999"
       id="rect3116" />
    <rect
       style="fill:none;stroke:#000000;stroke-width:0.2"
       x="431.646"
       y="108.897"
       width="4.46771"
       height="3.9712999"
       id="rect3118" />
    <path
       style="fill:none;stroke:#000000;stroke-width:0.2"
       d="m 413.651,120.811 0,21.718"
       id="path3120" />
    <path
       style="fill:none;stroke:#000000;stroke-width:0.2"
       d="m 419.857,120.811 0,21.718"
       id="path3122" />
    <path
       style="fill:none;stroke:#000000;stroke-width:0.2"
       d="m 426.062,120.811 0,21.718"
       id="path3124" />
    <path
       style="fill:none;stroke:#000000;stroke-width:0.2"
       d="m 432.267,120.811 0,21.718"
       id="path3126" />
    <path
       style="fill:none;stroke:#000000;stroke-width:0.2"
       d="m 438.472,120.811 0,21.718"
       id="path3128" />
    <path
       style="fill:none;stroke:#000000;stroke-width:0.2"
       d="m 444.677,120.811 0,21.718"
       id="path3130" />
    <polygon
       style="fill:#999999"
       points="407.446,146.872 444.677,146.872 444.677,139.426 454.605,154.318 400,154.318 407.446,139.426 "
       id="polygon3132" />
    <polygon
       style="fill:none;stroke:#000000;stroke-width:0.2"
       points="407.446,146.872 444.677,146.872 444.677,139.426 454.605,154.318 400,154.318 407.446,139.426 "
       id="polygon3134" />
    <text
       style="font-size:12.80000019px;font-style:normal;font-weight:normal;text-anchor:middle;fill:#000000;font-family:sanserif"
       x="427.30301"
       y="168.8"
       id="text3136">
      <tspan
         x="427.30301"
         y="168.8"
         id="tspan3138" />
    </text>
  </g>
  <g
     id="g3140"
     transform="matrix(0.55868603,0,0,0.55868603,8.3849654,5.495429)">
    <rect
       style="fill:#ffffff"
       x="20"
       y="140"
       width="120"
       height="40"
       id="rect3142" />
    <rect
       style="fill:none;stroke:#000000;stroke-width:2"
       x="20"
       y="140"
       width="120"
       height="40"
       id="rect3144" />
  </g>
  <g
     id="g3146"
     transform="matrix(0.55868603,0,0,0.55868603,8.3849654,5.495429)">
    <rect
       style="fill:#ffffff"
       x="20"
       y="200"
       width="120"
       height="40"
       id="rect3148" />
    <rect
       style="fill:none;stroke:#000000;stroke-width:2"
       x="20"
       y="200"
       width="120"
       height="40"
       id="rect3150" />
  </g>
  <g
     id="g3152"
     transform="matrix(0.55868603,0,0,0.55868603,8.3849654,5.495429)">
    <rect
       style="fill:#ffffff"
       x="20"
       y="280"
       width="120"
       height="40"
       id="rect3154" />
    <rect
       style="fill:none;stroke:#000000;stroke-width:2"
       x="20"
       y="280"
       width="120"
       height="40"
       id="rect3156" />
  </g>
  <text
     style="font-size:7.15118122px;font-style:normal;font-weight:normal;text-anchor:middle;fill:#000000;font-family:sanserif"
     x="53.079849"
     y="39.016594"
     id="text3158">
    <tspan
       x="53.079849"
       y="39.016594"
       id="tspan3160">Equation 1</tspan>
  </text>
  <text
     style="font-size:7.15118122px;font-style:normal;font-weight:normal;text-anchor:middle;fill:#000000;font-family:sanserif"
     x="53.079849"
     y="94.885178"
     id="text3162">
    <tspan
       x="53.079849"
       y="94.885178"
       id="tspan3164">Equation 2</tspan>
  </text>
  <text
     style="font-size:7.15118122px;font-style:normal;font-weight:normal;text-anchor:middle;fill:#000000;font-family:sanserif"
     x="53.079849"
     y="128.40636"
     id="text3166">
    <tspan
       x="53.079849"
       y="128.40636"
       id="tspan3168">Equation 3</tspan>
  </text>
  <text
     style="font-size:7.15118122px;font-style:normal;font-weight:normal;text-anchor:middle;fill:#000000;font-family:sanserif"
     x="53.079849"
     y="173.10124"
     id="text3170">
    <tspan
       x="53.079849"
       y="173.10124"
       id="tspan3172">Equation 4</tspan>
  </text>
  <g
     id="g3174"
     transform="matrix(0.55868603,0,0,0.55868603,8.3849654,5.495429)">
    <g
       id="g3176">
      <polygon
         style="fill:#ffffff"
         points="300,240 220,240 220,140 280,140 300,160 "
         id="polygon3178" />
      <polygon
         style="fill:none;stroke:#000000;stroke-width:2"
         points="300,240 220,240 220,140 280,140 300,160 "
         id="polygon3180" />
      <polyline
         style="fill:none;stroke:#000000;stroke-width:2"
         points="280,140 280,160 300,160 300,160 "
         id="polyline3182" />
    </g>
    <text
       style="font-size:12.80000019px;font-style:normal;font-weight:normal;text-anchor:middle;fill:#000000;font-family:sanserif"
       x="260"
       y="201.89999"
       id="text3184">
      <tspan
         x="260"
         y="201.89999"
         id="tspan3186">Document</tspan>
      <tspan
         x="260"
         y="217.89999"
         id="tspan3188">B</tspan>
    </text>
    <g
       id="g3190">
      <rect
         style="fill:#ff0000"
         x="240.20799"
         y="164.2"
         width="40"
         height="8"
         rx="2.35099e-37"
         ry="2.35099e-37"
         id="rect3192" />
      <rect
         style="fill:none;stroke:#000000;stroke-width:2;stroke-linejoin:round;stroke-dasharray:4"
         x="240.20799"
         y="164.2"
         width="40"
         height="8"
         rx="2.35099e-37"
         ry="2.35099e-37"
         id="rect3194" />
    </g>
    <g
       id="g3196">
      <rect
         style="fill:#ff0000"
         x="240.20799"
         y="179.39999"
         width="40"
         height="8"
         rx="2.35099e-37"
         ry="2.35099e-37"
         id="rect3198" />
      <rect
         style="fill:none;stroke:#000000;stroke-width:2;stroke-linejoin:round;stroke-dasharray:4"
         x="240.20799"
         y="179.39999"
         width="40"
         height="8"
         rx="2.35099e-37"
         ry="2.35099e-37"
         id="rect3200" />
    </g>
  </g>
  <g
     id="g3202"
     transform="matrix(0.55868603,0,0,0.55868603,8.3849654,5.495429)">
    <g
       id="g3204">
      <polygon
         style="fill:#ffffff"
         points="300,360 220,360 220,260 280,260 300,280 "
         id="polygon3206" />
      <polygon
         style="fill:none;stroke:#000000;stroke-width:2"
         points="300,360 220,360 220,260 280,260 300,280 "
         id="polygon3208" />
      <polyline
         style="fill:none;stroke:#000000;stroke-width:2"
         points="280,260 280,280 300,280 300,280 "
         id="polyline3210" />
    </g>
    <text
       style="font-size:12.80000019px;font-style:normal;font-weight:normal;text-anchor:middle;fill:#000000;font-family:sanserif"
       x="260"
       y="321.89999"
       id="text3212">
      <tspan
         x="260"
         y="321.89999"
         id="tspan3214">Document</tspan>
      <tspan
         x="260"
         y="337.89999"
         id="tspan3216">C</tspan>
    </text>
    <g
       id="g3218">
      <rect
         style="fill:#ff0000"
         x="240.20799"
         y="288.60001"
         width="40"
         height="8"
         rx="2.35099e-37"
         ry="2.35099e-37"
         id="rect3220" />
      <rect
         style="fill:none;stroke:#000000;stroke-width:2;stroke-linejoin:round;stroke-dasharray:4"
         x="240.20799"
         y="288.60001"
         width="40"
         height="8"
         rx="2.35099e-37"
         ry="2.35099e-37"
         id="rect3222" />
    </g>
  </g>
  <g
     id="g3224"
     transform="matrix(0.55868603,0,0,0.55868603,8.3849654,5.495429)">
    <g
       id="g3226">
      <polygon
         style="fill:#ffffff"
         points="300,120 220,120 220,20 280,20 300,40 "
         id="polygon3228" />
      <polygon
         style="fill:none;stroke:#000000;stroke-width:2"
         points="300,120 220,120 220,20 280,20 300,40 "
         id="polygon3230" />
      <polyline
         style="fill:none;stroke:#000000;stroke-width:2"
         points="280,20 280,40 300,40 300,40 "
         id="polyline3232" />
    </g>
    <text
       style="font-size:12.80000019px;font-style:normal;font-weight:normal;text-anchor:middle;fill:#000000;font-family:sanserif"
       x="260"
       y="81.900002"
       id="text3234">
      <tspan
         x="260"
         y="81.900002"
         id="tspan3236">Document</tspan>
      <tspan
         x="260"
         y="97.900002"
         id="tspan3238">A</tspan>
    </text>
    <text
       style="font-size:12.80000019px;font-style:normal;font-weight:normal;text-anchor:middle;fill:#000000;font-family:sanserif"
       x="260"
       y="70"
       id="text3240">
      <tspan
         x="260"
         y="70"
         id="tspan3242" />
    </text>
    <g
       id="g3244">
      <rect
         style="fill:#ff0000"
         x="240.20799"
         y="49"
         width="40"
         height="8"
         rx="2.35099e-37"
         ry="2.35099e-37"
         id="rect3246" />
      <rect
         style="fill:none;stroke:#000000;stroke-width:2;stroke-linejoin:round;stroke-dasharray:4"
         x="240.20799"
         y="49"
         width="40"
         height="8"
         rx="2.35099e-37"
         ry="2.35099e-37"
         id="rect3248" />
    </g>
  </g>
  <g
     id="g3250"
     transform="matrix(0.55868603,0,0,0.55868603,8.3849654,5.495429)">
    <path
       style="fill:#ffffff"
       d="m 395.085,228.095 c -15.339,-0.467 -45.085,9.324 -40.902,30.304 4.183,20.98 24.169,25.641 32.535,19.581 8.367,-6.061 -13.014,29.371 27.888,38.696 40.901,9.324 61.816,-5.595 55.774,-16.318 -6.042,-10.723 35.789,25.176 55.31,4.662 19.521,-20.513 -19.986,-40.094 -11.62,-37.297 8.367,2.797 33.93,-0.932 25.564,-35.899 -8.366,-34.966 -83.662,-7.925 -75.296,-13.054 8.366,-5.128 -12.549,-30.77 -38.577,-25.642 -26.029,5.129 -27.875,14.435 -30.663,34.948 l -0.013,0.019 z"
       id="path3252" />
    <path
       style="fill:none;stroke:#000000;stroke-width:2"
       d="m 395.085,228.095 c -15.339,-0.467 -45.085,9.324 -40.902,30.304 4.183,20.98 24.169,25.641 32.535,19.581 8.367,-6.061 -13.014,29.371 27.888,38.696 40.901,9.324 61.816,-5.595 55.774,-16.318 -6.042,-10.723 35.789,25.176 55.31,4.662 19.521,-20.513 -19.986,-40.094 -11.62,-37.297 8.367,2.797 33.93,-0.932 25.564,-35.899 -8.366,-34.966 -83.662,-7.925 -75.296,-13.054 8.366,-5.128 -12.549,-30.77 -38.577,-25.642 -26.029,5.129 -27.875,14.435 -30.663,34.948 l -0.013,0.019"
       id="path3254" />
    <text
       style="font-size:12.80000019px;font-style:normal;font-weight:normal;text-anchor:middle;fill:#000000;font-family:sanserif"
       x="454.30801"
       y="263.43301"
       id="text3256">
      <tspan
         x="454.30801"
         y="263.43301"
         id="tspan3258">HTTP</tspan>
    </text>
  </g>
  <g
     id="g3260"
     transform="matrix(0.55868603,0,0,0.55868603,8.3849654,5.495429)">
    <line
       style="fill:none;stroke:#000000;stroke-width:2"
       x1="140"
       y1="60"
       x2="235.74699"
       y2="53.3116"
       id="line3262" />
    <polyline
       style="fill:none;stroke:#000000;stroke-width:2"
       points="228.35,58.8405 237.977,53.1558 227.653,48.8648 "
       id="polyline3264" />
  </g>
  <g
     id="g3266"
     transform="matrix(0.55868603,0,0,0.55868603,8.3849654,5.495429)">
    <line
       style="fill:none;stroke:#000000;stroke-width:2"
       x1="140"
       y1="160"
       x2="235.75101"
       y2="167.83501"
       id="line3268" />
    <polyline
       style="fill:none;stroke:#000000;stroke-width:2"
       points="227.605,172.185 237.979,168.018 228.42,162.219 "
       id="polyline3270" />
  </g>
  <g
     id="g3272"
     transform="matrix(0.55868603,0,0,0.55868603,8.3849654,5.495429)">
    <line
       style="fill:none;stroke:#000000;stroke-width:2"
       x1="140"
       y1="220"
       x2="236.007"
       y2="184.93401"
       id="line3274" />
    <polyline
       style="fill:none;stroke:#000000;stroke-width:2"
       points="230.43,192.294 238.108,184.167 226.999,182.901 "
       id="polyline3276" />
  </g>
  <g
     id="g3278"
     transform="matrix(0.55868603,0,0,0.55868603,8.3849654,5.495429)">
    <line
       style="fill:none;stroke:#000000;stroke-width:2"
       x1="140"
       y1="300"
       x2="235.748"
       y2="292.92899"
       id="line3280" />
    <polyline
       style="fill:none;stroke:#000000;stroke-width:2"
       points="228.373,298.488 237.978,292.765 227.637,288.515 "
       id="polyline3282" />
  </g>
  <g
     id="g3284"
     transform="matrix(0.55868603,0,0,0.55868603,8.3849654,5.495429)">
    <line
       style="fill:none;stroke:#000000;stroke-width:2"
       x1="300"
       y1="70"
       x2="402.35699"
       y2="99.877701"
       id="line3286" />
    <polyline
       style="fill:none;stroke:#000000;stroke-width:2"
       points="393.503,102.502 404.504,100.504 396.305,92.9025 "
       id="polyline3288" />
  </g>
  <g
     id="g3290"
     transform="matrix(0.55868603,0,0,0.55868603,8.3849654,5.495429)">
    <line
       style="fill:none;stroke:#000000;stroke-width:2"
       x1="300"
       y1="190"
       x2="381.086"
       y2="226.151"
       id="line3292" />
    <polyline
       style="fill:none;stroke:#000000;stroke-width:2"
       points="371.959,227.556 383.128,227.061 376.031,218.423 "
       id="polyline3294" />
  </g>
  <g
     id="g3296"
     transform="matrix(0.55868603,0,0,0.55868603,8.3849654,5.495429)">
    <line
       style="fill:none;stroke:#000000;stroke-width:2"
       x1="300"
       y1="310"
       x2="375.827"
       y2="282.798"
       id="line3298" />
    <polyline
       style="fill:none;stroke:#000000;stroke-width:2"
       points="370.207,290.126 377.932,282.043 366.831,280.714 "
       id="polyline3300" />
  </g>
</svg>
