<?xml version="1.0" encoding="UTF-8" standalone="no"?>
<!-- Created with Inkscape (http://www.inkscape.org/) -->

<svg
   xmlns:dc="http://purl.org/dc/elements/1.1/"
   xmlns:cc="http://creativecommons.org/ns#"
   xmlns:rdf="http://www.w3.org/1999/02/22-rdf-syntax-ns#"
   xmlns:svg="http://www.w3.org/2000/svg"
   xmlns="http://www.w3.org/2000/svg"
   xmlns:xlink="http://www.w3.org/1999/xlink"
   xmlns:sodipodi="http://sodipodi.sourceforge.net/DTD/sodipodi-0.dtd"
   xmlns:inkscape="http://www.inkscape.org/namespaces/inkscape"
   width="210mm"
   height="297mm"
   id="svg2"
   version="1.1"
   inkscape:version="0.47 r22583"
   sodipodi:docname="logo.svg">
  <sodipodi:namedview
     id="base"
     pagecolor="#ffffff"
     bordercolor="#666666"
     borderopacity="1.0"
     inkscape:pageopacity="0.0"
     inkscape:pageshadow="2"
     inkscape:zoom="0.81340817"
     inkscape:cx="372.04724"
     inkscape:cy="655.26757"
     inkscape:document-units="px"
     inkscape:current-layer="layer1"
     showgrid="false"
     inkscape:window-width="1600"
     inkscape:window-height="1106"
     inkscape:window-x="-4"
     inkscape:window-y="-4"
     inkscape:window-maximized="1" />
  <defs
     id="defs4">
    <inkscape:perspective
       sodipodi:type="inkscape:persp3d"
       inkscape:vp_x="0 : 526.18109 : 1"
       inkscape:vp_y="0 : 1000 : 0"
       inkscape:vp_z="744.09448 : 526.18109 : 1"
       inkscape:persp3d-origin="372.04724 : 350.78739 : 1"
       id="perspective10" />
  </defs>
  <metadata
     id="metadata7">
    <rdf:RDF>
      <cc:Work
         rdf:about="">
        <dc:format>image/svg+xml</dc:format>
        <dc:type
           rdf:resource="http://purl.org/dc/dcmitype/StillImage" />
        <dc:title></dc:title>
      </cc:Work>
    </rdf:RDF>
  </metadata>
  <g
     inkscape:label="Ebene 1"
     inkscape:groupmode="layer"
     id="layer1">
    <g
       transform="translate(-170.88591,-264.31994)"
       id="g2822">
      <g
         style="font-style:normal;font-variant:normal;font-weight:normal;font-stretch:normal;letter-spacing:normal;word-spacing:normal;text-anchor:start;fill:none;stroke:#000000;stroke-linecap:butt;stroke-linejoin:miter;stroke-miterlimit:10.43299961;stroke-opacity:1;stroke-dasharray:none;stroke-dashoffset:0"
         id="content"
         transform="matrix(1.0629921,0,0,-1.0629921,-186.02362,789.27165)"
         xml:space="preserve"
         stroke-miterlimit="10.433"
         fill-rule="even-odd"
         font-style="normal"
         font-variant="normal"
         font-weight="normal"
         font-stretch="normal"
         font-size-adjust="none"
         letter-spacing="normal"
         word-spacing="normal"><path
           style="fill:#000000;stroke-width:0"
           d="m 476.27,434.49 0.04,0.43 0.03,0.41 0.04,0.4 0.04,0.39 0.04,0.38 0.04,0.37 0.04,0.35 0.04,0.35 0.05,0.34 0.04,0.32 0.05,0.32 0.05,0.31 0.05,0.29 0.05,0.29 0.05,0.28 0.06,0.27 0.05,0.26 0.06,0.25 0.06,0.24 0.06,0.23 0.06,0.22 0.06,0.22 0.13,0.4 0.13,0.38 0.13,0.34 0.15,0.32 0.14,0.29 0.15,0.25 0.16,0.24 0.16,0.21 0.16,0.19 0.17,0.16 0.17,0.14 0.17,0.13 0.18,0.1 0.19,0.09 0.19,0.08 0.19,0.06 0.19,0.04 0.2,0.03 0.2,0.03 0.21,0.01 0.21,0 c 0.5,0 2.04,-0.1 3.13,-1.04 -1.44,-0.2 -1.84,-1.35 -1.84,-2.04 0,-1.45 1.1,-2.1 2.04,-2.1 1,0 2.1,0.65 2.1,2.15 0,2.39 -2.5,4.13 -5.48,4.13 -4.74,0 -6.68,-4.83 -7.52,-8.62 -0.6,-2.74 -2.39,-16.79 -2.84,-22.81 l -0.95,-12.41 c -0.65,-8.16 -2.44,-10.41 -5.28,-10.41 -0.65,0 -2.14,0.15 -3.19,1.05 1.45,0.2 1.85,1.34 1.85,2.04 0,1.45 -1.1,2.09 -2.05,2.09 -0.99,0 -2.09,-0.64 -2.09,-2.14 0,-2.39 2.49,-4.13 5.48,-4.13 4.73,0 7.12,4.33 8.22,8.82 0.65,2.59 2.44,17.08 2.84,22.61 z"
           id="path2825" /></g>    </g>
    <g
       id="g2843"
       transform="translate(-212.68535,-158.59196)">
      <g
         word-spacing="normal"
         letter-spacing="normal"
         font-size-adjust="none"
         font-stretch="normal"
         font-weight="normal"
         font-variant="normal"
         font-style="normal"
         fill-rule="even-odd"
         stroke-miterlimit="10.433"
         xml:space="preserve"
         transform="matrix(1.0629921,0,0,-1.0629921,-186.02362,789.27165)"
         id="g2845"
         style="font-style:normal;font-variant:normal;font-weight:normal;font-stretch:normal;letter-spacing:normal;word-spacing:normal;text-anchor:start;fill:none;stroke:#000000;stroke-linecap:butt;stroke-linejoin:miter;stroke-miterlimit:10.43299961;stroke-opacity:1;stroke-dasharray:none;stroke-dashoffset:0"><path
           id="path2847"
           d="m 481.3,419.55 -0.15,0.19 -0.15,0.18 -0.14,0.17 -0.14,0.17 -0.14,0.17 -0.13,0.15 -0.13,0.16 -0.12,0.15 -0.12,0.14 -0.11,0.14 -0.12,0.13 -0.1,0.13 -0.11,0.13 -0.1,0.12 -0.1,0.11 -0.09,0.12 -0.09,0.1 -0.09,0.11 -0.16,0.19 -0.16,0.19 -0.14,0.17 -0.13,0.15 -0.13,0.15 -0.12,0.13 -0.11,0.12 -0.1,0.12 -0.1,0.1 -0.09,0.1 -0.09,0.1 -0.08,0.08 -0.09,0.09 -0.16,0.15 -0.15,0.15 -0.17,0.15 -0.09,0.07 -0.09,0.08 -0.09,0.09 -0.1,0.08 c -1.59,1.35 -4.53,3.44 -8.46,3.44 -5.79,0 -9.57,-5.43 -9.57,-11.31 h 1.1 c 0,4.98 3.48,8.91 7.67,8.91 2.29,0 4.33,-1.14 6.57,-3.58 1.4,-1.54 3.64,-4.68 5.03,-6.38 h 0 c -1.89,-3.38 -5.68,-8.61 -11.3,-8.61 -5.29,0 -7.97,5.18 -7.97,9.66 h -1.1 c 0,-5.53 3.49,-11.26 9.41,-11.26 7.18,0 11.61,7.37 12.26,8.47 3.34,-4.03 3.38,-4.08 4.48,-5.03 1.6,-1.35 4.53,-3.44 8.47,-3.44 5.78,0 9.56,5.43 9.56,11.31 h -1.09 c 0,-4.98 -3.49,-8.92 -7.67,-8.92 -2.3,0 -4.34,1.15 -6.58,3.59 -1.39,1.54 -3.63,4.68 -5.03,6.37 h 0 c 1.89,3.39 5.68,8.62 11.31,8.62 5.28,0 7.97,-5.18 7.97,-9.66 h 1.09 c 0,5.53 -3.48,11.26 -9.41,11.26 -7.17,0 -11.61,-7.38 -12.26,-8.47 z"
           style="fill:#000000;stroke-width:0" /></g>    </g>
    <use
       x="0"
       y="0"
       xlink:href="#g2822"
       id="use2859"
       transform="matrix(-1,0,0,1,217.08296,-1.2293968)"
       width="744.09448"
       height="1052.3622" />
  </g>
</svg>
